<?xml version="1.0" encoding="utf-8"?>
<!-- Generator: Adobe Illustrator 18.1.1, SVG Export Plug-In . SVG Version: 6.00 Build 0)  -->
<svg version="1.1" baseProfile="tiny" id="Capa_1" xmlns="http://www.w3.org/2000/svg" xmlns:xlink="http://www.w3.org/1999/xlink"
	 x="0px" y="0px" viewBox="0 0 409.6 145.9" xml:space="preserve">
<path fill="#D1DE4A" d="M103,16c-18.7,1.8-32.8-2-48.2,3.8C39.3,25.5,34.4,31,25.2,41.3c6.2,8.5,22.9,16.9,29,18.7s24.5,5.9,40.8-5
	s28.4-33.1,32.8-52.7C127.8,2.2,121.6,14.2,103,16z M86.7,48.4L84,54.6l-13.6,5.5l-12.9-7l-2-9.8l7.5-7.5l12.1-1.5L86.7,35V48.4z"/>
<path fill="#C7D831" d="M127.8,2.2c0,0-6.2,12-24.8,13.8s-32.8-2-48.2,3.8c-7.3,2.7-12.2,5.4-16.4,8.5c18.5-4.9,37.3-0.2,42.7,3.2
	c4.5-0.6,21.9-3.4,33.3,2.8C120.7,24.3,125.4,12.9,127.8,2.2z"/>
<path fill="#D1DE4A" d="M19.2,51.2c0,0,24.6,3.7,31.7,22.5s-1,36.4-19.5,48.1C13,133.4,2.7,133.8,2.7,133.8s14.2-10.2,12.9-25.7
	s-3.8-24.3-2.4-38.7C14.6,54.9,19.2,51.2,19.2,51.2z"/>
<path fill="#059245" d="M31.4,121.7C13,133.4,2.7,133.8,2.7,133.8s12.1-8.8,12.9-22.3C18.1,114.1,25.7,120.4,31.4,121.7z"/>
<path fill="#94C93F" d="M33.3,55.8c6.8,3.3,14.2,8.9,17.6,17.8c7.1,18.7-1,36.4-19.5,48.1c-3.9-0.6-11.5-5.6-15.8-10.1
	c0.1-1.1,0.1-2.3,0-3.5c-0.5-5.7-1.1-10.5-1.6-14.9C16.4,82.5,22.6,65,33.3,55.8z"/>
<path fill="none" stroke="#1D1D1B" stroke-width="0.7642" stroke-miterlimit="10" d="M122.4,38.5c0,0,19,23.1,14.1,50.2
	c-4,21.7-17.8,34.7-17.8,34.7s-12.3-2.6-25-15.1s-6.8-31.2-5.2-34.5c1.7-3.3,6.8-11.3,17-19S119.6,44.5,122.4,38.5z"/>
<path fill="#019449" d="M129.2,95c-4,21.7-10.5,28.5-10.5,28.5s-12.3-2.6-25-15.1s11.4-11.2,13.1-14.6c1.7-3.3,14.7-17.1,14.7-17.1
	C129.6,82,129.6,88.2,129.2,95z"/>
<path fill="#97C740" d="M121.6,76.8c-10-8.7-12.8-16.3-16-21.9c8.3-6.2,12.4-9.2,15.1-13.3C121.3,40.7,131.8,71.7,121.6,76.8z"/>
<path fill="#00A653" d="M122.4,38.5c0,0,19,23.1,14.1,50.2c-4,21.7-17.8,34.7-17.8,34.7s10.8-26.3,2.9-46.7
	c2.4-8.4,2.5-24.1-2.1-33.5C120.6,41.8,121.6,40.3,122.4,38.5z"/>
<path fill="#42AC46" d="M99.2,113.2c-1.8-1.4-3.6-3-5.4-4.8c-12.6-12.5-6.8-31.2-5.2-34.5c1.7-3.3,6.8-11.3,17-19
	c1.4-1,2.7-2,3.8-2.9c4.4,6.5,10.2,13.7,12.1,26.4C118.8,95.5,104.8,109.8,99.2,113.2z"/>
<path fill="#019448" d="M25.4,143.1c0,0,16.3-33.9,46.5-35.6c22.2-1,35.4,24.1,35.4,24.1s-10.6,10-33.1,9.8c-8.6,0.2-25.3-6-34.3-5
	S25.4,143.1,25.4,143.1z"/>
<path fill="#42AD44" d="M39.2,124c7.8-8,18.8-15.7,32.7-16.4c9.3-0.4,17,3.7,22.8,8.7C83.6,129.7,41.6,130.1,39.2,124z"/>
<path fill="#94C93F" d="M81.1,31.5c-20.9,1.9-41.3,16.2-43.6,20.2c6.4,4.1,13.3,7.2,16.7,8.3c6.1,1.9,24.5,5.9,40.8-5
	c3.5-2.3,6.7-5.1,9.8-8.3C98.4,41,87,32.5,81.1,31.5z M70.3,56.8c-5.3,0-9.6-4.3-9.6-9.6c0-5.3,4.3-9.6,9.6-9.6
	c5.3,0,9.6,4.3,9.6,9.6C79.9,52.5,75.6,56.8,70.3,56.8z"/>
<path fill="#A7CD38" d="M127.8,2.2c0,0-6.2,12-24.8,13.8c6.6,4.9,10.2,9.8,12.6,16.3C121.3,22.8,125.5,12.2,127.8,2.2z"/>
<g>
	<path fill="#706F6F" d="M193.4,57.8c0,2.3-0.6,4.3-1.7,6.1c-1.2,1.8-2.9,3.2-5.1,4.2s-4.9,1.5-8,1.5c-3.7,0-6.7-0.7-9.1-2.1
		c-1.7-1-3.1-2.3-4.1-4c-1.1-1.7-1.6-3.3-1.6-4.9c0-0.9,0.3-1.7,1-2.4c0.6-0.7,1.5-1,2.4-1c0.8,0,1.5,0.3,2,0.8
		c0.6,0.5,1,1.3,1.4,2.3c0.5,1.2,1,2.2,1.5,3c0.6,0.8,1.3,1.5,2.3,2c1,0.5,2.3,0.8,4,0.8c2.2,0,4.1-0.5,5.5-1.6
		c1.4-1,2.1-2.4,2.1-3.9c0-1.2-0.4-2.3-1.1-3c-0.8-0.8-1.7-1.4-2.9-1.8c-1.2-0.4-2.8-0.8-4.8-1.3c-2.7-0.6-4.9-1.4-6.8-2.2
		c-1.8-0.8-3.3-2-4.3-3.4c-1.1-1.5-1.6-3.3-1.6-5.4c0-2.1,0.6-3.9,1.7-5.5c1.1-1.6,2.7-2.8,4.9-3.7c2.1-0.9,4.6-1.3,7.5-1.3
		c2.3,0,4.3,0.3,6,0.9c1.7,0.6,3.1,1.3,4.2,2.3c1.1,0.9,1.9,1.9,2.4,3c0.5,1,0.8,2.1,0.8,3c0,0.9-0.3,1.7-1,2.4
		c-0.6,0.7-1.4,1.1-2.4,1.1c-0.9,0-1.5-0.2-2-0.7c-0.5-0.4-0.9-1.1-1.5-2.1c-0.7-1.4-1.5-2.5-2.5-3.3s-2.5-1.2-4.6-1.2
		c-2,0-3.5,0.4-4.7,1.3c-1.2,0.9-1.8,1.9-1.8,3.1c0,0.7,0.2,1.4,0.6,1.9c0.4,0.5,1,1,1.7,1.4c0.7,0.4,1.4,0.7,2.2,0.9
		c0.7,0.2,1.9,0.5,3.6,1c2.1,0.5,4,1,5.7,1.6c1.7,0.6,3.2,1.3,4.4,2.2c1.2,0.9,2.1,1.9,2.8,3.2C193,54.4,193.4,56,193.4,57.8z"/>
	<path fill="#706F6F" d="M216.9,65.8c-1.7,1.3-3.3,2.3-4.9,2.9c-1.6,0.7-3.3,1-5.3,1c-1.8,0-3.4-0.4-4.7-1.1
		c-1.4-0.7-2.4-1.7-3.1-2.9c-0.7-1.2-1.1-2.5-1.1-3.9c0-1.9,0.6-3.5,1.8-4.9c1.2-1.3,2.9-2.2,5-2.7c0.4-0.1,1.5-0.3,3.3-0.7
		c1.8-0.4,3.3-0.7,4.5-1c1.3-0.3,2.6-0.7,4.1-1.1c-0.1-1.8-0.5-3.2-1.1-4c-0.7-0.9-2-1.3-4.1-1.3c-1.8,0-3.1,0.2-4,0.7
		c-0.9,0.5-1.7,1.2-2.3,2.2c-0.6,1-1.1,1.6-1.4,2s-0.8,0.5-1.7,0.5c-0.8,0-1.5-0.3-2-0.8c-0.6-0.5-0.9-1.1-0.9-1.9
		c0-1.2,0.4-2.4,1.3-3.6c0.9-1.2,2.2-2.1,4.1-2.9c1.8-0.7,4.1-1.1,6.9-1.1c3.1,0,5.5,0.4,7.2,1.1c1.8,0.7,3,1.9,3.7,3.4
		c0.7,1.6,1.1,3.6,1.1,6.2c0,1.6,0,3,0,4.2c0,1.1,0,2.4,0,3.8c0,1.3,0.2,2.7,0.7,4.1c0.4,1.4,0.7,2.3,0.7,2.7c0,0.7-0.3,1.4-1,2
		c-0.7,0.6-1.4,0.9-2.3,0.9c-0.7,0-1.4-0.3-2.1-1C218.5,68,217.7,67.1,216.9,65.8z M216.5,55.7c-1,0.4-2.5,0.8-4.5,1.2
		c-1.9,0.4-3.3,0.7-4,0.9c-0.7,0.2-1.5,0.6-2.1,1.1c-0.7,0.6-1,1.4-1,2.4c0,1.1,0.4,2,1.2,2.7c0.8,0.7,1.8,1.1,3.1,1.1
		c1.4,0,2.7-0.3,3.8-0.9c1.2-0.6,2-1.4,2.6-2.3c0.6-1.1,0.9-2.8,0.9-5.2V55.7z"/>
	<path fill="#706F6F" d="M230.4,65.5V35.3c0-1.4,0.3-2.5,0.9-3.2c0.6-0.7,1.5-1.1,2.5-1.1s1.9,0.4,2.6,1.1c0.6,0.7,1,1.8,1,3.2v30.2
		c0,1.4-0.3,2.5-1,3.2s-1.5,1.1-2.5,1.1c-1,0-1.9-0.4-2.5-1.1C230.7,67.9,230.4,66.8,230.4,65.5z"/>
	<path fill="#706F6F" d="M262.7,65.8v-0.9c-0.8,1.1-1.7,1.9-2.6,2.7s-1.9,1.2-3,1.6c-1.1,0.3-2.3,0.5-3.7,0.5c-1.7,0-3.2-0.3-4.5-1
		s-2.4-1.7-3.1-2.9c-0.9-1.5-1.3-3.6-1.3-6.4V45.5c0-1.4,0.3-2.4,0.9-3.1c0.6-0.7,1.5-1,2.5-1c1.1,0,1.9,0.3,2.6,1
		c0.6,0.7,1,1.7,1,3.1v11.2c0,1.6,0.1,3,0.4,4.1c0.3,1.1,0.8,2,1.5,2.6c0.7,0.6,1.7,0.9,2.9,0.9c1.2,0,2.3-0.3,3.3-1
		c1-0.7,1.8-1.6,2.3-2.7c0.4-1,0.6-3.1,0.6-6.5v-8.5c0-1.4,0.3-2.4,1-3.1c0.6-0.7,1.5-1,2.5-1s1.9,0.3,2.5,1
		c0.6,0.7,0.9,1.7,0.9,3.1v20.2c0,1.3-0.3,2.3-0.9,3s-1.4,1-2.3,1s-1.7-0.3-2.4-1C263,68,262.7,67,262.7,65.8z"/>
	<path fill="#706F6F" d="M295.2,65.7V65c-0.9,1.1-1.9,1.9-2.8,2.6c-0.9,0.7-1.9,1.2-3,1.5c-1.1,0.3-2.2,0.5-3.5,0.5
		c-1.7,0-3.2-0.4-4.6-1.1s-2.7-1.7-3.7-3c-1-1.3-1.8-2.9-2.4-4.6c-0.5-1.8-0.8-3.7-0.8-5.7c0-4.4,1.1-7.8,3.2-10.2
		c2.1-2.4,4.9-3.7,8.4-3.7c2,0,3.7,0.3,5.1,1c1.4,0.7,2.7,1.7,4,3.2V35.4c0-1.4,0.3-2.5,0.9-3.2c0.6-0.7,1.4-1.1,2.4-1.1
		c1.1,0,1.9,0.3,2.4,1c0.6,0.7,0.9,1.7,0.9,3v30.7c0,1.3-0.3,2.3-0.9,3s-1.4,1-2.4,1c-1,0-1.7-0.3-2.4-1
		C295.6,68,295.2,67,295.2,65.7z M281.5,55.5c0,1.9,0.3,3.5,0.9,4.8c0.6,1.3,1.4,2.3,2.4,3c1,0.7,2.1,1,3.3,1c1.2,0,2.3-0.3,3.4-1
		c1-0.6,1.8-1.6,2.4-2.9s0.9-3,0.9-4.9c0-1.9-0.3-3.5-0.9-4.8c-0.6-1.3-1.4-2.4-2.5-3.1c-1-0.7-2.2-1.1-3.4-1.1
		c-1.3,0-2.4,0.4-3.4,1.1c-1,0.7-1.8,1.8-2.3,3.1C281.8,52.1,281.5,53.7,281.5,55.5z"/>
	<path fill="#706F6F" d="M328.3,70.6L329,69l-8.6-21.6c-0.5-1.2-0.8-2.1-0.8-2.7c0-0.6,0.2-1.1,0.5-1.7s0.7-0.9,1.3-1.2
		c0.5-0.3,1.1-0.5,1.7-0.5c1,0,1.8,0.3,2.3,1s1,1.6,1.4,2.7l5.9,17.2l5.6-16c0.4-1.3,0.8-2.3,1.2-3c0.4-0.7,0.7-1.2,1.1-1.5
		c0.4-0.3,1-0.4,1.7-0.4c0.5,0,1,0.1,1.5,0.4c0.5,0.3,0.9,0.7,1.1,1.1c0.3,0.5,0.4,1,0.4,1.5c-0.1,0.3-0.2,0.8-0.3,1.4
		s-0.3,1.2-0.6,1.8l-9.1,23.8c-0.8,2.1-1.5,3.7-2.3,4.9c-0.7,1.2-1.7,2.1-3,2.7c-1.2,0.6-2.9,1-5,1c-2,0-3.6-0.2-4.6-0.7
		c-1-0.4-1.5-1.3-1.5-2.4c0-0.8,0.2-1.4,0.7-1.9s1.2-0.7,2.2-0.7c0.4,0,0.7,0.1,1.1,0.2c0.4,0.1,0.8,0.2,1.1,0.2
		c0.8,0,1.4-0.1,1.9-0.4s0.9-0.7,1.2-1.2C327.4,72.6,327.9,71.7,328.3,70.6z"/>
	<path fill="#706F6F" d="M180.9,131.8h-11.4c-1.7,0-2.8-0.4-3.5-1.1c-0.7-0.7-1.1-1.9-1.1-3.5V99c0-1.7,0.4-2.8,1.1-3.6
		c0.7-0.7,1.9-1.1,3.5-1.1h12.1c1.8,0,3.3,0.1,4.6,0.3s2.5,0.6,3.5,1.3c0.9,0.5,1.7,1.2,2.3,2c0.7,0.8,1.2,1.7,1.6,2.7
		c0.4,1,0.5,2,0.5,3.1c0,3.7-1.9,6.5-5.6,8.2c4.9,1.6,7.4,4.6,7.4,9.1c0,2.1-0.5,4-1.6,5.7c-1.1,1.7-2.5,2.9-4.3,3.7
		c-1.1,0.5-2.5,0.8-3.9,1C184.6,131.7,182.9,131.8,180.9,131.8z M172.5,100.1v9.7h6.9c1.9,0,3.3-0.2,4.4-0.5c1-0.4,1.8-1,2.4-2
		c0.4-0.7,0.6-1.5,0.6-2.4c0-1.9-0.7-3.1-2-3.8c-1.3-0.6-3.4-0.9-6.2-0.9H172.5z M180.4,115.2h-7.9v10.9h8.1c5.1,0,7.7-1.8,7.7-5.5
		c0-1.9-0.7-3.3-2-4.1C185,115.6,183,115.2,180.4,115.2z"/>
	<path fill="#706F6F" d="M205.6,100.9c-1,0-1.8-0.3-2.5-0.9c-0.7-0.6-1-1.4-1-2.5c0-1,0.4-1.8,1.1-2.4c0.7-0.6,1.5-1,2.5-1
		c0.9,0,1.7,0.3,2.4,0.9c0.7,0.6,1,1.4,1,2.5c0,1.1-0.3,1.9-1,2.5C207.3,100.6,206.5,100.9,205.6,100.9z M209,108.1v20.1
		c0,1.4-0.3,2.5-1,3.2c-0.7,0.7-1.5,1.1-2.5,1.1c-1,0-1.9-0.4-2.5-1.1c-0.6-0.7-1-1.8-1-3.1v-19.9c0-1.4,0.3-2.4,1-3.1
		c0.6-0.7,1.5-1,2.5-1c1,0,1.9,0.3,2.5,1C208.7,105.9,209,106.8,209,108.1z"/>
	<path fill="#706F6F" d="M235.7,120h-13.6c0,1.6,0.3,3,1,4.2c0.6,1.2,1.4,2.1,2.5,2.7c1,0.6,2.2,0.9,3.4,0.9c0.8,0,1.6-0.1,2.3-0.3
		c0.7-0.2,1.4-0.5,2-0.9c0.6-0.4,1.2-0.9,1.8-1.3c0.5-0.5,1.3-1.1,2.1-1.9c0.4-0.3,0.9-0.5,1.5-0.5c0.7,0,1.3,0.2,1.7,0.6
		c0.4,0.4,0.7,0.9,0.7,1.7c0,0.6-0.2,1.4-0.7,2.2c-0.5,0.8-1.2,1.7-2.2,2.4c-1,0.8-2.2,1.4-3.8,1.9c-1.5,0.5-3.2,0.8-5.2,0.8
		c-4.5,0-8-1.3-10.4-3.8c-2.5-2.6-3.7-6-3.7-10.4c0-2.1,0.3-4,0.9-5.7c0.6-1.8,1.5-3.3,2.7-4.5c1.2-1.3,2.6-2.2,4.3-2.9
		c1.7-0.7,3.6-1,5.7-1c2.7,0,5.1,0.6,7,1.7c1.9,1.1,3.4,2.6,4.4,4.5c1,1.8,1.5,3.7,1.5,5.6c0,1.8-0.5,2.9-1.5,3.4
		S237.5,120,235.7,120z M222.1,116h12.6c-0.2-2.4-0.8-4.2-1.9-5.3c-1.1-1.2-2.6-1.8-4.4-1.8c-1.7,0-3.2,0.6-4.3,1.8
		C223,111.9,222.3,113.7,222.1,116z"/>
	<path fill="#706F6F" d="M253.6,108v0.8c1.2-1.6,2.6-2.8,4-3.6c1.5-0.8,3.1-1.1,5-1.1c1.8,0,3.5,0.4,4.9,1.2
		c1.4,0.8,2.5,1.9,3.2,3.4c0.5,0.9,0.8,1.8,0.9,2.8c0.1,1,0.2,2.2,0.2,3.8v13c0,1.4-0.3,2.5-1,3.2s-1.5,1.1-2.5,1.1
		c-1,0-1.9-0.4-2.5-1.1c-0.6-0.7-1-1.8-1-3.1v-11.6c0-2.3-0.3-4.1-1-5.3c-0.6-1.2-1.9-1.8-3.8-1.8c-1.2,0-2.4,0.4-3.4,1.1
		c-1,0.7-1.8,1.8-2.2,3.1c-0.3,1-0.5,3-0.5,5.8v8.7c0,1.4-0.3,2.5-1,3.2s-1.5,1.1-2.5,1.1c-1,0-1.8-0.4-2.5-1.1
		c-0.6-0.7-1-1.8-1-3.1v-20.1c0-1.3,0.3-2.3,0.9-3c0.6-0.7,1.4-1,2.4-1c0.6,0,1.2,0.1,1.7,0.4c0.5,0.3,0.9,0.7,1.2,1.3
		C253.5,106.4,253.6,107.1,253.6,108z"/>
	<path fill="#706F6F" d="M298.3,120h-13.6c0,1.6,0.3,3,1,4.2c0.6,1.2,1.4,2.1,2.5,2.7c1,0.6,2.2,0.9,3.4,0.9c0.8,0,1.6-0.1,2.3-0.3
		c0.7-0.2,1.4-0.5,2-0.9c0.6-0.4,1.2-0.9,1.8-1.3c0.5-0.5,1.3-1.1,2.1-1.9c0.4-0.3,0.9-0.5,1.5-0.5c0.7,0,1.3,0.2,1.7,0.6
		c0.4,0.4,0.7,0.9,0.7,1.7c0,0.6-0.2,1.4-0.7,2.2c-0.5,0.8-1.2,1.7-2.2,2.4c-1,0.8-2.2,1.4-3.8,1.9c-1.5,0.5-3.2,0.8-5.2,0.8
		c-4.5,0-8-1.3-10.4-3.8c-2.5-2.6-3.7-6-3.7-10.4c0-2.1,0.3-4,0.9-5.7c0.6-1.8,1.5-3.3,2.7-4.5c1.2-1.3,2.6-2.2,4.3-2.9
		c1.7-0.7,3.6-1,5.7-1c2.7,0,5.1,0.6,7,1.7c1.9,1.1,3.4,2.6,4.4,4.5c1,1.8,1.5,3.7,1.5,5.6c0,1.8-0.5,2.9-1.5,3.4
		S300.2,120,298.3,120z M284.7,116h12.6c-0.2-2.4-0.8-4.2-1.9-5.3c-1.1-1.2-2.6-1.8-4.4-1.8c-1.7,0-3.2,0.6-4.3,1.8
		C285.6,111.9,284.9,113.7,284.7,116z"/>
	<path fill="#706F6F" d="M332.4,123.3c0,1.9-0.5,3.6-1.4,4.9c-0.9,1.4-2.3,2.4-4.1,3.1s-4.1,1.1-6.7,1.1c-2.5,0-4.6-0.4-6.4-1.1
		s-3.1-1.7-4-2.9c-0.9-1.1-1.3-2.3-1.3-3.5c0-0.8,0.3-1.4,0.8-2c0.5-0.5,1.2-0.8,2.1-0.8c0.7,0,1.3,0.2,1.7,0.5s0.8,0.9,1.1,1.5
		c0.7,1.2,1.6,2.2,2.6,2.8c1,0.6,2.4,0.9,4.1,0.9c1.4,0,2.5-0.3,3.4-0.9c0.9-0.6,1.3-1.3,1.3-2.1c0-1.2-0.5-2.1-1.4-2.7
		c-0.9-0.6-2.5-1.1-4.6-1.6c-2.4-0.6-4.4-1.2-5.9-1.9c-1.5-0.7-2.7-1.5-3.6-2.6c-0.9-1.1-1.4-2.4-1.4-4c0-1.4,0.4-2.7,1.3-4
		c0.8-1.2,2.1-2.2,3.7-3s3.6-1.1,5.9-1.1c1.8,0,3.4,0.2,4.9,0.6s2.6,0.9,3.6,1.5c1,0.6,1.7,1.3,2.2,2.1s0.8,1.5,0.8,2.2
		c0,0.8-0.3,1.5-0.8,2s-1.3,0.8-2.3,0.8c-0.7,0-1.3-0.2-1.8-0.6s-1.1-1-1.7-1.8c-0.5-0.7-1.1-1.2-1.9-1.6s-1.7-0.6-2.9-0.6
		c-1.3,0-2.3,0.3-3.1,0.8s-1.2,1.2-1.2,2c0,0.7,0.3,1.3,0.9,1.8c0.6,0.5,1.4,0.9,2.5,1.2c1,0.3,2.5,0.7,4.3,1.1
		c2.2,0.5,3.9,1.2,5.3,1.9c1.4,0.7,2.4,1.6,3.1,2.6C332,120.9,332.4,122.1,332.4,123.3z"/>
	<path fill="#706F6F" d="M338.7,104.7h0.8v-4.2c0-1.1,0-2,0.1-2.6s0.2-1.2,0.5-1.6c0.3-0.5,0.7-0.9,1.2-1.2s1.1-0.4,1.7-0.4
		c0.9,0,1.7,0.3,2.4,1c0.5,0.4,0.8,1,0.9,1.6c0.1,0.6,0.2,1.5,0.2,2.7v4.7h2.6c1,0,1.7,0.2,2.3,0.7c0.5,0.5,0.8,1.1,0.8,1.8
		c0,0.9-0.4,1.6-1.1,2c-0.7,0.4-1.8,0.6-3.2,0.6h-1.3v12.8c0,1.1,0,1.9,0.1,2.5c0.1,0.6,0.3,1.1,0.6,1.4c0.3,0.4,0.9,0.5,1.6,0.5
		c0.4,0,1-0.1,1.7-0.2c0.7-0.1,1.2-0.2,1.6-0.2c0.6,0,1.1,0.2,1.5,0.7s0.7,1,0.7,1.7c0,1.1-0.6,2-1.8,2.6c-1.2,0.6-3,0.9-5.3,0.9
		c-2.2,0-3.8-0.4-5-1.1c-1.1-0.7-1.9-1.7-2.2-3c-0.3-1.3-0.5-3-0.5-5.2v-13.4h-0.9c-1,0-1.8-0.2-2.3-0.7c-0.5-0.5-0.8-1.1-0.8-1.8
		c0-0.7,0.3-1.3,0.8-1.8C336.8,105,337.6,104.7,338.7,104.7z"/>
	<path fill="#706F6F" d="M374.4,128.5c-1.7,1.3-3.3,2.3-4.9,2.9s-3.3,1-5.3,1c-1.8,0-3.4-0.4-4.7-1.1c-1.4-0.7-2.4-1.7-3.1-2.9
		c-0.7-1.2-1.1-2.5-1.1-3.9c0-1.9,0.6-3.5,1.8-4.9c1.2-1.3,2.9-2.2,5-2.7c0.4-0.1,1.5-0.3,3.3-0.7s3.3-0.7,4.5-1s2.6-0.7,4.1-1.1
		c-0.1-1.8-0.5-3.2-1.1-4s-2-1.3-4.1-1.3c-1.8,0-3.1,0.2-4,0.7c-0.9,0.5-1.7,1.2-2.3,2.2c-0.6,1-1.1,1.6-1.4,2
		c-0.3,0.3-0.8,0.5-1.7,0.5c-0.8,0-1.5-0.3-2-0.8s-0.9-1.1-0.9-1.9c0-1.2,0.4-2.4,1.3-3.6s2.2-2.1,4.1-2.9c1.8-0.7,4.1-1.1,6.9-1.1
		c3.1,0,5.5,0.4,7.2,1.1c1.8,0.7,3,1.9,3.7,3.4c0.7,1.6,1.1,3.6,1.1,6.2c0,1.6,0,3,0,4.2c0,1.1,0,2.4,0,3.8c0,1.3,0.2,2.7,0.7,4.1
		c0.4,1.4,0.7,2.3,0.7,2.7c0,0.7-0.3,1.4-1,2c-0.7,0.6-1.4,0.9-2.3,0.9c-0.7,0-1.4-0.3-2.1-1C375.9,130.8,375.2,129.8,374.4,128.5z
		 M374,118.4c-1,0.4-2.5,0.8-4.5,1.2c-1.9,0.4-3.3,0.7-4,0.9c-0.7,0.2-1.5,0.6-2.1,1.1s-1,1.4-1,2.4c0,1.1,0.4,2,1.2,2.7
		s1.8,1.1,3.1,1.1c1.4,0,2.7-0.3,3.8-0.9c1.2-0.6,2-1.4,2.6-2.3c0.6-1.1,0.9-2.8,0.9-5.2V118.4z"/>
	<path fill="#706F6F" d="M394.8,122.4v5.8c0,1.4-0.3,2.5-1,3.2s-1.5,1.1-2.5,1.1c-1,0-1.8-0.4-2.5-1.1s-1-1.8-1-3.2v-19.4
		c0-3.1,1.1-4.7,3.4-4.7c1.2,0,2,0.4,2.5,1.1c0.5,0.7,0.8,1.8,0.8,3.2c0.8-1.4,1.7-2.5,2.6-3.2c0.9-0.7,2-1.1,3.5-1.1
		s2.9,0.4,4.3,1.1s2.1,1.7,2.1,2.9c0,0.9-0.3,1.6-0.9,2.1c-0.6,0.6-1.2,0.8-1.9,0.8c-0.3,0-0.9-0.2-1.9-0.5c-1-0.3-1.8-0.5-2.6-0.5
		c-1,0-1.9,0.3-2.5,0.8s-1.1,1.3-1.5,2.4s-0.6,2.3-0.7,3.8C394.9,118.5,394.8,120.3,394.8,122.4z"/>
</g>
<rect x="0" y="0" fill="none" width="409.6" height="145.9"/>
</svg>
